<?xml version="1.0" encoding="UTF-8" standalone="no"?>
<!-- Created with Inkscape (http://www.inkscape.org/) -->

<svg
   width="17.385267mm"
   height="16.057783mm"
   viewBox="0 0 17.385267 16.057783"
   version="1.1"
   id="svg5"
   inkscape:version="1.2.2 (b0a8486541, 2022-12-01)"
   sodipodi:docname="leaf.svg"
   xmlns:inkscape="http://www.inkscape.org/namespaces/inkscape"
   xmlns:sodipodi="http://sodipodi.sourceforge.net/DTD/sodipodi-0.dtd"
   xmlns="http://www.w3.org/2000/svg"
   xmlns:svg="http://www.w3.org/2000/svg">
  <sodipodi:namedview
     id="namedview7"
     pagecolor="#505050"
     bordercolor="#eeeeee"
     borderopacity="1"
     inkscape:showpageshadow="0"
     inkscape:pageopacity="0"
     inkscape:pagecheckerboard="0"
     inkscape:deskcolor="#505050"
     inkscape:document-units="mm"
     showgrid="false"
     inkscape:zoom="8"
     inkscape:cx="11.3125"
     inkscape:cy="33.5"
     inkscape:window-width="1920"
     inkscape:window-height="1011"
     inkscape:window-x="1920"
     inkscape:window-y="32"
     inkscape:window-maximized="1"
     inkscape:current-layer="layer1" />
  <defs
     id="defs2" />
  <g
     inkscape:label="Layer 1"
     inkscape:groupmode="layer"
     id="layer1"
     transform="translate(-9.4771955,-12.579923)">
    <path
       style="fill:#10b981;fill-opacity:1;stroke:#000000;stroke-width:0;stroke-linecap:butt;stroke-linejoin:miter;stroke-dasharray:none;stroke-opacity:1"
       d="m 15.942934,27.26288 c 1.73387,-4.461687 4.462997,-6.779221 4.462997,-6.779221 0,0 -1.229795,-1.426355 -0.09773,-2.596643 1.963978,-2.030287 6.554262,-2.815197 6.554262,-2.815197 0,0 -1.180574,4.344072 -2.873693,6.013835 -1.391637,1.37244 -3.068858,-0.03539 -3.068858,-0.03539 0,0 -1.555421,1.386996 -2.946039,3.694209 -0.84267,1.398098 -1.923694,3.893233 -1.923694,3.893233 z"
       id="path3971"
       sodipodi:nodetypes="ccscscscc" />
    <path
       style="fill:#10b981;fill-opacity:1;stroke:#000000;stroke-width:0;stroke-linecap:butt;stroke-linejoin:miter;stroke-dasharray:none;stroke-opacity:1"
       d="m 17.553003,23.035906 c -0.805302,-1.69215 -2.392942,-5.163776 -2.392942,-5.163776 0,0 1.100986,-1.29205 0.289517,-2.683418 -1.053034,-1.752116 -5.9723819,-2.608788 -5.9723819,-2.608788 0,0 0.4274611,3.595128 2.2302199,5.630118 1.256136,1.417952 2.804689,0.203482 2.804689,0.203482 0,0 1.031875,1.731586 1.403532,2.700317 0.371657,0.968731 1.084304,2.744751 1.084304,2.744751 z"
       id="path3973"
       sodipodi:nodetypes="ccccscscc" />
  </g>
</svg>
